# xmcd CD database file
#
# Track frame offsets:
#	150
#	12150
#	23400
#	40526
#	54326
#	70413
#	83951
#	104351
#	118151
#
# Disc length: 1827 seconds
#
# Revision: 0
# Processed by: cddbd v1.5.2PL0 Copyright (c) Steve Scherf et al.
# Submitted via: CDex 1.70beta1
#
DISCID=67072109
DTITLE=Patrick Dunning - The Signature Project
DYEAR=2003
DGENRE=New Age
TTITLE0=The Kid in the Cot
TTITLE1=Heartbeat Reel
TTITLE2=Blue Dodge Blues
TTITLE3=Cat Calls
TTITLE4=Nimbus
TTITLE5=Four O'Clock
TTITLE6=Freeway Blues
TTITLE7=M7 South
TTITLE8=Star of the County Down
EXTD=YEAR: 2003
EXTT0=
EXTT1=
EXTT2=
EXTT3=
EXTT4=
EXTT5=
EXTT6=
EXTT7=
EXTT8=
PLAYORDER=
